HIERARCHY
ROOT Hips
{
    OFFSET 0.000000 0.000000 0.000000
    CHANNELS 6 Xposition Yposition Zposition Zrotation Xrotation Yrotation
    JOINT Spine
    {
        OFFSET -0.000000 14.517291 0.000000
        CHANNELS 3 Zrotation Xrotation Yrotation
        JOINT Spine1
        {
            OFFSET -0.000000 37.558300 0.000000
            CHANNELS 3 Zrotation Xrotation Yrotation
            JOINT Neck
            {
                OFFSET -0.000000 37.404057 3.400369
                CHANNELS 3 Zrotation Xrotation Yrotation
                JOINT Head
                {
                    OFFSET -0.000000 24.785618 -3.540803
                    CHANNELS 3 Zrotation Xrotation Yrotation
                    End Site
                    {
                        OFFSET -0.000000 35.408028 0.000000
                    }
                }
            }
            JOINT LeftShoulder
            {
                OFFSET 6.992933 33.973492 -0.192664
                CHANNELS 3 Zrotation Xrotation Yrotation
                JOINT LeftArm
                {
                    OFFSET 21.527611 0.000000 0.000000
                    CHANNELS 3 Zrotation Xrotation Yrotation
                    JOINT LeftForeArm
                    {
                        OFFSET 56.353916 0.000000 0.000000
                        CHANNELS 3 Zrotation Xrotation Yrotation
                        JOINT LeftHand
                        {
                            OFFSET 47.774071 0.000000 0.000000
                            CHANNELS 3 Zrotation Xrotation Yrotation
                            End Site
                            {
                                OFFSET 26.556021 0.000000 0.000000
                            }
                        }
                    }
                }
            }
            JOINT RightShoulder
            {
                OFFSET -7.065357 33.973492 -0.192664
                CHANNELS 3 Zrotation Xrotation Yrotation
                JOINT RightArm
                {
                    OFFSET -21.527611 0.000000 0.000000
                    CHANNELS 3 Zrotation Xrotation Yrotation
                    JOINT RightForeArm
                    {
                        OFFSET -56.353916 0.000000 0.000000
                        CHANNELS 3 Zrotation Xrotation Yrotation
                        JOINT RightHand
                        {
                            OFFSET -47.774071 0.000000 0.000000
                            CHANNELS 3 Zrotation Xrotation Yrotation
                            End Site
                            {
                                OFFSET -26.556021 0.000000 0.000000
                            }
                        }
                    }
                }
            }
        }
    }
    JOINT LeftUpLeg
    {
        OFFSET 17.704014 0.000000 0.000000
        CHANNELS 3 Zrotation Xrotation Yrotation
        JOINT LeftLeg
        {
            OFFSET -0.000000 -81.181816 0.000000
            CHANNELS 3 Zrotation Xrotation Yrotation
            JOINT LeftFoot
            {
                OFFSET -0.000000 -62.821102 0.000000
                CHANNELS 3 Zrotation Xrotation Yrotation
                JOINT LeftToeBase
                {
                    OFFSET -0.000000 -11.507608 26.556021
                    CHANNELS 3 Zrotation Xrotation Yrotation
                    End Site
                    {
                        OFFSET -0.000000 0.000000 7.081605
                    }
                }
            }
        }
    }
    JOINT RightUpLeg
    {
        OFFSET -17.704014 0.000000 0.000000
        CHANNELS 3 Zrotation Xrotation Yrotation
        JOINT RightLeg
        {
            OFFSET -0.000000 -81.181816 0.000000
            CHANNELS 3 Zrotation Xrotation Yrotation
            JOINT RightFoot
            {
                OFFSET -0.000000 -62.821102 0.000000
                CHANNELS 3 Zrotation Xrotation Yrotation
                JOINT RightToeBase
                {
                    OFFSET -0.000000 -11.507608 26.556021
                    CHANNELS 3 Zrotation Xrotation Yrotation
                    End Site
                    {
                        OFFSET -0.000000 0.000000 7.081605
                    }
                }
            }
        }
    }
}
MOTION
Frames:    10
Frame Time:    0.008333
34.708851    159.956024    -97.213913    -2.070909    0.138709    24.228859    0.534707    -5.640258    -1.719306    -7.921181    2.031217    -0.439365    16.238789    -2.673048    3.007895    2.856474    2.342087    0.663681    9.000154    6.065301    -13.621821    -37.822926    12.272831    -52.572620    -8.408215    -23.191685    -116.463394    -3.413958    -34.816383    -11.306764    -12.408007    -0.292098    -6.213501    17.521646    -7.343544    30.107794    -18.568056    -3.799891    97.022064    -15.811658    16.102024    9.386871    9.329851    4.154007    1.227291    -8.483174    18.646976    -17.397928    4.165210    -22.290854    44.435013    0.000000    0.000000    0.000000    -11.358613    -25.075985    -5.717140    10.327471    24.806322    -12.653907    0.666573    8.387714    -12.760758    0.000000    0.000000    0.000000    
34.685795    159.961807    -97.215935    -2.074816    0.159008    24.284124    0.538181    -5.652037    -1.713837    -7.939215    2.041709    -0.436588    16.247299    -2.660846    2.993808    2.876700    2.273535    0.653561    9.013980    6.059102    -13.622246    -37.811089    12.290995    -52.581242    -8.401145    -23.242542    -116.455429    -3.420437    -34.849812    -11.316168    -12.400857    -0.292945    -6.219141    17.563004    -7.399171    30.032290    -18.633713    -4.382252    97.958107    -15.727186    15.977095    9.373988    9.340544    4.113562    1.203013    -8.483755    18.651369    -17.415245    4.149796    -22.278727    44.415489    0.000000    0.000000    0.000000    -11.371966    -25.080433    -5.738012    10.320922    24.799511    -12.646588    0.675642    8.371711    -12.788803    0.000000    0.000000    0.000000    
34.659775    159.967728    -97.213211    -2.084664    0.170856    24.342785    0.541383    -5.664083    -1.708465    -7.945349    2.052091    -0.433961    16.249437    -2.671258    2.980004    2.901399    2.258251    0.640750    9.013251    6.055367    -13.629763    -37.779919    12.321319    -52.586201    -8.388053    -23.319788    -116.444443    -3.414892    -34.899204    -11.308893    -12.417803    -0.288811    -6.221622    17.632843    -7.493224    29.966173    -18.532137    -4.818265    98.884583    -15.672518    15.822477    9.162315    9.364126    4.075657    1.165768    -8.494491    18.659023    -17.432768    4.152399    -22.268553    44.422176    0.000000    0.000000    0.000000    -11.371669    -25.078089    -5.764073    10.312629    24.788761    -12.661862    0.662448    8.372096    -12.804156    0.000000    0.000000    0.000000    
34.637989    159.971848    -97.209389    -2.090195    0.171336    24.395929    0.544231    -5.663490    -1.705853    -7.956363    2.060763    -0.432273    16.275339    -2.663186    2.976488    2.909595    2.220346    0.635750    9.023315    6.063099    -13.617566    -37.773972    12.335309    -52.603241    -8.385700    -23.352028    -116.422379    -3.433558    -34.918343    -11.317234    -12.410688    -0.287777    -6.201735    17.688578    -7.629316    29.883520    -18.362249    -5.134297    99.758842    -15.566959    15.675159    9.039497    9.385530    4.050748    1.116911    -8.502518    18.669600    -17.432249    4.148621    -22.256405    44.409718    0.000000    0.000000    0.000000    -11.371700    -25.060829    -5.773954    10.310119    24.775003    -12.643883    0.677020    8.352171    -12.844377    0.000000    0.000000    0.000000    
34.617748    159.973663    -97.211693    -2.100035    0.183637    24.442654    0.616163    -5.742026    -1.712118    -8.106030    2.171194    -0.425235    16.352501    -2.657132    2.989048    2.935376    2.167063    0.640535    9.109980    6.050699    -13.590922    -37.751785    12.328383    -52.622849    -8.387367    -23.414135    -116.403229    -3.417647    -34.973759    -11.292575    -12.341050    -0.337692    -6.128054    17.756323    -7.799038    29.781683    -18.109180    -5.322961    100.565895    -15.560956    15.508417    8.954520    9.402515    4.009920    1.075259    -8.512467    18.686491    -17.442987    4.156775    -22.253687    44.433182    0.000000    0.000000    0.000000    -11.369746    -25.064714    -5.810850    10.289316    24.771463    -12.640314    0.678621    8.346151    -12.858518    0.000000    0.000000    0.000000    
34.600250    159.974533    -97.206619    -2.098078    0.184072    24.483282    0.600249    -5.751143    -1.707579    -8.096556    2.190845    -0.422245    16.383846    -2.640955    2.987798    2.926325    2.136169    0.635573    9.115276    6.060477    -13.586426    -37.743683    12.346045    -52.626003    -8.376143    -23.455059    -116.380234    -3.407063    -34.991425    -11.284698    -12.183521    -0.342559    -6.201527    17.572206    -7.774897    29.846088    -18.038866    -5.726936    101.158234    -15.577747    15.277082    8.834945    9.411492    4.003798    1.035946    -8.527081    18.555161    -17.379839    4.140891    -22.132669    44.415245    0.000000    0.000000    0.000000    -11.374555    -25.051779    -5.823668    10.285740    24.766630    -12.660327    0.676580    8.324162    -12.856856    0.000000    0.000000    0.000000    
34.587345    159.974289    -97.203728    -2.098838    0.176837    24.522112    0.596551    -5.751757    -1.703496    -8.083663    2.212317    -0.419578    16.370070    -2.644620    2.981448    2.957260    2.123680    0.634931    9.109902    6.050223    -13.585129    -37.746696    12.352324    -52.600376    -8.378498    -23.460545    -116.369347    -3.417211    -34.996071    -11.289984    -12.180461    -0.346988    -6.224192    17.589495    -7.878161    29.830984    -17.917505    -5.903762    101.770981    -15.696531    15.184306    8.849066    9.427068    3.988593    1.000309    -8.522338    18.690750    -17.451723    4.161676    -22.238260    44.432629    0.000000    0.000000    0.000000    -11.378733    -25.033815    -5.818194    10.302138    24.756014    -12.684159    0.664542    8.311188    -12.890286    0.000000    0.000000    0.000000    
34.580921    159.973221    -97.197495    -2.091682    0.169421    24.549381    0.584887    -5.757081    -1.699444    -8.067909    2.231535    -0.416964    16.362169    -2.631735    2.982674    2.977494    2.118139    0.642235    9.096248    6.056141    -13.588615    -37.720062    12.377334    -52.563324    -8.354535    -23.516378    -116.359055    -3.422701    -35.011318    -11.288050    -12.184704    -0.351510    -6.216088    17.616804    -7.994931    29.801231    -17.667122    -5.987019    102.379433    -15.733947    15.053046    8.631803    9.432098    4.002043    0.974337    -8.534596    18.665512    -17.407022    4.147348    -22.231117    44.390194    0.000000    0.000000    0.000000    -11.384265    -25.015863    -5.824096    10.299639    24.756672    -12.696730    0.670163    8.298964    -12.894056    0.000000    0.000000    0.000000    
34.572350    159.974396    -97.195160    -2.088257    0.162595    24.570997    0.574797    -5.760125    -1.697668    -8.056399    2.247939    -0.415246    16.368303    -2.604818    2.987006    2.989833    2.090950    0.651729    9.096263    6.060040    -13.576092    -37.741249    12.357472    -52.521221    -8.389319    -23.444744    -116.355034    -3.412276    -34.993927    -11.298343    -12.172940    -0.347358    -6.211815    17.633165    -8.079473    29.798765    -17.656652    -6.147219    102.829758    -15.847918    15.061390    8.587982    9.435881    4.011351    0.978799    -8.523957    18.654192    -17.404230    4.130179    -22.232424    44.354351    0.000000    0.000000    0.000000    -11.387107    -24.999781    -5.827353    10.299561    24.750065    -12.696148    0.669950    8.286535    -12.902964    0.000000    0.000000    0.000000    
34.563976    159.975739    -97.194069    -2.084931    0.159515    24.589476    0.564862    -5.765713    -1.694172    -8.043829    2.260976    -0.413319    16.340508    -2.605116    2.977756    3.043367    2.107628    0.653370    9.089071    6.068649    -13.564610    -38.596458    11.314683    -52.268509    -9.143149    -21.493254    -116.354439    -3.030319    -34.308601    -11.277844    -12.171069    -0.347106    -6.210197    17.647018    -8.148595    29.768183    -17.552240    -6.264508    103.277740    -15.730196    15.039487    8.298915    9.439734    4.025518    0.974693    -8.516197    18.620277    -17.422083    4.120130    -22.216185    44.347485    0.000000    0.000000    0.000000    -11.389795    -24.990826    -5.817225    10.303919    24.751183    -12.707069    0.677937    8.270430    -12.903940    0.000000    0.000000    0.000000    
